{
  "title": "Patang (2012) Tiny720p WebRip x264 MSubs -DDR",
  "uid": 15833999,
  "size": 1085122027,
  "categoryP": "video",
  "categoryS": "hd___movies",
  "magnet": "?xt=urn:btih:8e26c2285810ceb6fa6126fbcb972918595c33c4&amp;dn=Patang+%282012%29+Tiny720p+WebRip+x264+MSubs+-DDR&amp;tr=udp%3A%2F%2Ftracker.leechers-paradise.org%3A6969&amp;tr=udp%3A%2F%2Fzer0day.ch%3A1337&amp;tr=udp%3A%2F%2Fopen.demonii.com%3A1337&amp;tr=udp%3A%2F%2Ftracker.coppersurfer.tk%3A6969&amp;tr=udp%3A%2F%2Fexodus.desync.com%3A6969",
  "seeders": 52,
  "leechers": 44,
  "uploader": "SaM",
  "files": 3,
  "time": 1473950594,
  "description": "Tiny 720p WebRip x264\r\n\r\nHindi AAC 2.0 Audio\r\n\r\n\r\n\r\nEnglish &amp; French Subtitles\r\n\r\n\r\nSynopsis:\r\nIMDB\r\n\r\nIn the city of Ahmadabad, six people are taken on an extraordinary journey during India's largest kite festival. Each year a million kites circle the skies of the old city. Wishing to share the festival's colorful splendor with his daughter, a thriving Delhi businessman takes her on a surprise trip to his childhood home. Yet among the music, fireworks, and light stirs thick emotions and fading dreams. He is forced to mend the broken relationships he left behind. A story of healing and renewal illustrated by actors and non-actors respectively, Patang offers a startling array of beauty and pain stirring among the kites in the sky.\r\n\r\n\r\nAWARDS\r\nHawaii International Film Festival 2011\r\nWon\r\nHalekulani Golden Orchid Award Narrative Feature\r\nPrashant Bhargava\r\n\r\nTribeca Film Festival 2011\r\nNominated\r\nJury Award Best Narrative Feature\r\nPrashant Bhargava\r\n\r\nSCREENSHOTS \r\n \nhttp://extraimago.com/image/wIfX \nhttp://extraimago.com/image/wIfP \nhttp://extraimago.com/image/wIfG \nhttp://extraimago.com/image/wIfr \nhttp://extraimago.com/image/wIfp \nhttp://extraimago.com/image/wIfY \nhttp://extraimago.com/image/wIfC \nhttp://extraimago.com/image/wIfB \nhttp://extraimago.com/image/wIf4 \nhttp://extraimago.com/image/wIfe \nhttp://extraimago.com/image/wIfZ \nhttp://extraimago.com/image/wIfK \nhttp://extraimago.com/image/wIfJ \nhttp://extraimago.com/image/wIf0\r\n\r\n\r\nSpecs:\r\nSource: Netflix HD Rip @ DDR\r\n\r\nFormat : Matroska\r\nFormat version : Version 4 / Version 2\r\nFile size : 1 023 MiB\r\nDuration : 1 h 33 min\r\nOverall bit rate : 1 525 kb/s\r\nEncoded date : UTC 2016-09-15 04:56:36\r\nWriting application : mkvmerge v9.2.0 ('Photograph') 64bit\r\nWriting library : libebml v1.3.3 + libmatroska v1.4.4\r\n\r\nVideo\r\nID : 1\r\nFormat : AVC\r\nFormat/Info : Advanced Video Codec\r\nFormat profile :   \r\nFormat settings, CABAC : Yes\r\nFormat settings, ReFrames : 10 frames\r\nCodec ID : V_MPEG4/ISO/AVC\r\nDuration : 1 h 33 min\r\nBit rate : 1 301 kb/s\r\nWidth : 1 280 pixels\r\nHeight : 640 pixels\r\nDisplay aspect ratio : 2.000\r\nFrame rate mode : Constant\r\nFrame rate : 24.000 FPS\r\nColor space : YUV\r\nChroma subsampling : 4:2:0\r\nBit depth : 8 bits\r\nScan type : Progressive\r\nBits/(Pixel*Frame) : 0.066\r\nStream size : 873 MiB (85%)\r\nLanguage : English\r\nDefault : Yes\r\nForced : No\r\nColor range : Limited\r\nColor primaries : BT.709\r\nTransfer characteristics : BT.709\r\nMatrix coefficients : BT.709\r\n\r\nAudio\r\nID : 2\r\nFormat : AAC\r\nFormat/Info : Advanced Audio Codec\r\nFormat profile : LC\r\nCodec ID : A_AAC\r\nDuration : 1 h 33 min\r\nBit rate : 221 kb/s\r\nChannel(s) : 2 channels\r\nChannel positions : Front: L R\r\nSampling rate : 48.0 kHz\r\nFrame rate : 46.875 FPS (1024 spf)\r\nCompression mode : Lossy\r\nDelay relative to video : 6 ms\r\nStream size : 148 MiB (15%)\r\nLanguage : Hindi\r\nDefault : Yes\r\nForced : No",
  "parsed": {
    "xt": "urn:btih:8e26c2285810ceb6fa6126fbcb972918595c33c4",
    "dn": "Patang (2012) Tiny720p WebRip x264 MSubs -DDR",
    "tr": [
      "udp://exodus.desync.com:6969",
      "udp://open.demonii.com:1337",
      "udp://tracker.coppersurfer.tk:6969",
      "udp://tracker.leechers-paradise.org:6969",
      "udp://zer0day.ch:1337"
    ],
    "infoHash": "8e26c2285810ceb6fa6126fbcb972918595c33c4",
    "infoHashBuffer": {
      "type": "Buffer",
      "data": [
        142,
        38,
        194,
        40,
        88,
        16,
        206,
        182,
        250,
        97,
        38,
        251,
        203,
        151,
        41,
        24,
        89,
        92,
        51,
        196
      ]
    },
    "name": "Patang (2012) Tiny720p WebRip x264 MSubs -DDR",
    "announce": [
      "udp://exodus.desync.com:6969",
      "udp://open.demonii.com:1337",
      "udp://tracker.coppersurfer.tk:6969",
      "udp://tracker.leechers-paradise.org:6969",
      "udp://zer0day.ch:1337"
    ],
    "urlList": []
  },
  "previous": 23,
  "peers": 30,
  "last_updated": "2016-12-27T06:43:09.257Z"
}